<?xml version="1.0" encoding="UTF-8"?>
<svg version="1.1" xmlns="http://www.w3.org/2000/svg" width="520" height="520">
<path d="M0 0 C1.14866043 -0.00101212 1.14866043 -0.00101212 2.32052612 -0.00204468 C13.39414923 0.01349002 23.8636571 0.41197093 34.625 3.25 C35.94917385 3.55878635 37.27339408 3.86737388 38.59765625 4.17578125 C56.18017142 8.55943569 73.38015633 17.09924085 87.625 28.25 C88.54925781 28.95511719 89.47351563 29.66023438 90.42578125 30.38671875 C120.92036801 54.41144976 139.74870088 88.79412758 144.625 127.25 C144.86609823 132.7053954 144.87070138 138.16480529 144.875 143.625 C144.87567474 144.39077362 144.87634949 145.15654724 144.87704468 145.94552612 C144.86150998 157.01914923 144.46302907 167.4886571 141.625 178.25 C141.31621365 179.57417385 141.00762612 180.89839408 140.69921875 182.22265625 C136.55036948 198.86338519 128.66410543 215.11094228 118.40234375 228.82421875 C116.86696191 230.91976187 115.69135074 232.89076805 114.625 235.25 C115.21371793 235.35768991 115.80243586 235.46537981 116.40899372 235.57633305 C125.12583849 238.22625797 132.9311156 249.40047638 139.32739258 255.79125977 C140.59443584 257.05366669 141.86167346 258.31587857 143.12908936 259.57791138 C146.55064622 262.98643098 149.96893618 266.3982077 153.38620973 269.81102109 C155.52325428 271.94512415 157.66088004 274.07864339 159.79868126 276.21198845 C166.49383615 282.89349865 173.18700794 289.5769859 179.87728006 296.26338536 C187.58985326 303.97146856 195.30893947 311.67295053 203.03370744 319.36881214 C209.01538445 325.3288825 214.99129384 331.2946956 220.96284598 337.26491016 C224.52565449 340.82667102 228.09084805 344.38596354 231.66205788 347.93930244 C235.01672932 351.27750831 238.36418385 354.62278497 241.70623779 357.97362137 C242.9327392 359.20089363 244.16180473 360.42560959 245.39362144 361.64754677 C247.07636212 363.31758025 248.74956085 364.99663698 250.42073059 366.67823792 C251.15233586 367.39775858 251.15233586 367.39775858 251.89872104 368.13181502 C256.57312607 372.87461207 259.05400166 377.43340602 259.125 384.125 C258.95662873 390.02531494 257.68881462 393.9373804 253.625 398.25 C248.48823776 402.4432753 244.22099503 402.71174473 237.6875 402.78125 C231.04902197 401.62967728 226.31652453 397.3846219 221.70951843 392.72219849 C220.88186964 391.90262801 220.88186964 391.90262801 220.03750068 391.06650054 C218.20493499 389.24815299 216.3831748 387.41936566 214.5612793 385.59033203 C213.24392308 384.27868241 211.92593871 382.96766343 210.6073761 381.65722656 C207.03865642 378.10641696 203.47952475 374.54614273 199.92260718 370.98351526 C196.95055529 368.00836976 193.97392049 365.0378308 190.99730521 362.06725204 C183.97662898 355.06061112 176.96377305 348.04621082 169.95581055 341.02685547 C162.72668049 333.78623294 155.48484257 326.55850338 148.23658818 319.33702958 C142.01010033 313.13268698 135.79138813 306.9206269 129.57890064 300.70226562 C125.86989138 296.98988429 122.15803797 293.2804659 118.43875694 289.57837296 C114.94383327 286.0988984 111.45872833 282.60988007 107.98095512 279.11326599 C106.70329953 277.83191957 105.42222453 276.55397226 104.13750839 275.27970505 C102.38411431 273.53948729 100.6435085 271.78739608 98.90556335 270.0317688 C98.3947768 269.53058725 97.88399025 269.02940571 97.35772532 268.51303685 C94.23560671 265.32522626 92.72150189 262.56854506 91.625 258.25 C87.55320825 260.4629303 83.78739476 262.8220081 80.04296875 265.5546875 C74.86274566 269.19649818 69.52630905 272.0999485 63.8125 274.8125 C62.8220166 275.28357178 61.8315332 275.75464355 60.81103516 276.23999023 C41.58285128 285.10243221 21.95577194 288.66877884 0.875 288.5625 C-0.2511824 288.55976578 -0.2511824 288.55976578 -1.40011597 288.55697632 C-12.34978781 288.51219924 -22.73632095 288.05567962 -33.375 285.25 C-34.69917385 284.94121365 -36.02339408 284.63262612 -37.34765625 284.32421875 C-54.93017142 279.94056431 -72.13015633 271.40075915 -86.375 260.25 C-87.29925781 259.54488281 -88.22351563 258.83976562 -89.17578125 258.11328125 C-119.67036801 234.08855024 -138.49870088 199.70587242 -143.375 161.25 C-143.61609823 155.7946046 -143.62070138 150.33519471 -143.625 144.875 C-143.62601212 143.72633957 -143.62601212 143.72633957 -143.62704468 142.55447388 C-143.61150998 131.48085077 -143.21302907 121.0113429 -140.375 110.25 C-140.06621365 108.92582615 -139.75762612 107.60160592 -139.44921875 106.27734375 C-135.06556431 88.69482858 -126.52575915 71.49484367 -115.375 57.25 C-114.66988281 56.32574219 -113.96476562 55.40148437 -113.23828125 54.44921875 C-85.50586245 19.24846455 -44.6073772 0.03511783 0 0 Z " fill="#2BA453" transform="translate(207.375,63.75)"/>
<path d="M0 0 C0.90363281 -0.02835937 1.80726563 -0.05671875 2.73828125 -0.0859375 C9.31406525 0.94180093 14.06240949 5.30814851 18.59625244 9.90280151 C19.14731273 10.44918183 19.69837303 10.99556216 20.26613212 11.55849946 C22.09637195 13.37684808 23.91578855 15.20564026 25.73535156 17.03466797 C27.05107698 18.34632514 28.36743907 19.65734393 29.68438721 20.96777344 C33.24894675 24.51868522 36.80398595 28.0789865 40.35696125 31.64148474 C44.07997538 35.37210696 47.81031813 39.09538955 51.53948975 42.81985474 C57.79898635 49.07389783 64.05214076 55.33422996 70.30175781 61.59814453 C77.52446823 68.83718775 84.75793218 76.06535059 91.99706292 83.28797042 C98.216746 89.49403568 104.43055881 95.70593305 110.63951087 101.92273438 C114.34591695 105.63381439 118.05431274 109.34284506 121.768013 113.04662704 C125.25830098 116.52824316 128.74115706 120.01712769 132.21843719 123.51173401 C133.49493914 124.79219926 134.77399454 126.07012485 136.05578613 127.34529495 C137.80645633 129.08775396 139.5476034 130.83921389 141.28668213 132.5932312 C141.79455584 133.09441275 142.30242955 133.59559429 142.82569337 134.11196315 C147.55509754 138.92035281 150.11548178 143.4622828 150.1875 150.25 C150.01912873 156.15031494 148.75131462 160.0623804 144.6875 164.375 C139.55073776 168.5682753 135.28349503 168.83674473 128.75 168.90625 C122.11176923 167.75472017 117.38231686 163.51251304 112.77874756 158.84719849 C112.22768727 158.30081817 111.67662697 157.75443784 111.10886788 157.19150054 C109.27862805 155.37315192 107.45921145 153.54435974 105.63964844 151.71533203 C104.32392302 150.40367486 103.00756093 149.09265607 101.69061279 147.78222656 C98.12605325 144.23131478 94.57101405 140.6710135 91.01803875 137.10851526 C87.29502462 133.37789304 83.56468187 129.65461045 79.83551025 125.93014526 C73.57601365 119.67610217 67.32285924 113.41577004 61.07324219 107.15185547 C53.85053177 99.91281225 46.61706782 92.68464941 39.37793708 85.46202958 C33.158254 79.25596432 26.94444119 73.04406695 20.73548913 66.82726562 C17.02908305 63.11618561 13.32068726 59.40715494 9.606987 55.70337296 C6.11669902 52.22175684 2.63384294 48.73287231 -0.84343719 45.23826599 C-2.11993914 43.95780074 -3.39899454 42.67987515 -4.68078613 41.40470505 C-6.43145633 39.66224604 -8.1726034 37.91078611 -9.91168213 36.1567688 C-10.41955584 35.65558725 -10.92742955 35.15440571 -11.45069337 34.63803685 C-15.76924384 30.24736252 -18.73970522 25.77981853 -18.75 19.5 C-18.53657157 13.05834201 -16.47492554 8.42930427 -11.8125 4 C-7.72725524 1.34459091 -4.94168719 0.06989657 0 0 Z " fill="#289E4F" transform="translate(316.3125,297.625)"/>
<path d="M0 0 C42.24 0 84.48 0 128 0 C118.27903794 17.82176379 108.48863673 35.57772732 98.20117188 53.07885742 C94.04214572 60.16943561 89.99776344 67.31741677 86 74.5 C81.13636355 83.21817683 76.23523089 91.91317601 71.25 100.5625 C70.35474609 102.13451172 70.35474609 102.13451172 69.44140625 103.73828125 C68.88839844 104.6921875 68.33539063 105.64609375 67.765625 106.62890625 C67.27868164 107.47525635 66.79173828 108.32160645 66.29003906 109.19360352 C65.86432617 109.78971436 65.43861328 110.3858252 65 111 C64.34 111 63.68 111 63 111 C55.47177851 97.84927002 47.94390629 84.69870023 40.5 71.5 C35.75519997 63.08923317 30.98082723 54.69568518 26.1875 46.3125 C25.69150299 45.44492065 25.69150299 45.44492065 25.18548584 44.55981445 C21.66873868 38.40898663 18.1490984 32.25981888 14.62733459 26.11186218 C13.14856587 23.52993602 11.67061374 20.94754294 10.19277954 18.36508179 C9.14652016 16.53758908 8.09903314 14.71080382 7.05151367 12.8840332 C6.41834229 11.77761475 5.7851709 10.67119629 5.1328125 9.53125 C4.57480957 8.55736328 4.01680664 7.58347656 3.44189453 6.58007812 C2.23433451 4.41931038 1.10698857 2.21397714 0 0 Z " fill="#000000" transform="translate(144,168)"/>
</svg>
